<svg id="Capa_1" enable-background="new 0 0 512 512" height="512" viewBox="0 0 512 512" width="512" xmlns="http://www.w3.org/2000/svg"><g><path d="m512 214.007c0-26.664-6.414-53.234-18.55-76.836-1.884-3.665-6.38-5.107-10.047-3.224-3.664 1.884-5.108 6.382-3.223 10.046 11.212 21.809 16.898 45.365 16.898 70.014 0 80.381-63.343 147.587-142.708 153.262v-14.963c33.482-2.617 64.613-17.176 88.314-41.465 25.455-26.086 39.473-60.476 39.473-96.835 0-76.497-62.235-138.732-138.731-138.732-76.497 0-138.732 62.235-138.732 138.732 0 26.416 7.476 52.027 21.605 74.242v19.155h-4.798c-20.484-26.699-31.728-59.722-31.728-93.397 0-84.725 68.929-153.653 153.653-153.653 45.552 0 88.511 20.113 117.862 55.182 2.647 3.161 7.352 3.577 10.51.933 3.16-2.645 3.578-7.35.934-10.51-32.194-38.466-79.323-60.527-129.305-60.527-92.953 0-168.575 75.622-168.575 168.575 0 33.219 9.975 65.857 28.317 93.397h-72.611c-9.599 0-17.408 7.809-17.408 17.408v33.318h-95.742c-9.599.001-17.408 7.811-17.408 17.409v73.621c0 9.599 7.809 17.408 17.408 17.408h156.059c4.121 0 7.461-3.34 7.461-7.461 0-4.12-3.34-7.461-7.461-7.461h-45.396v-126.833c0-1.371 1.115-2.487 2.487-2.487h95.741v129.321h-18.171c-4.121 0-7.461 3.34-7.461 7.461 0 4.12 3.34 7.461 7.461 7.461h128.834c9.599 0 17.408-7.809 17.408-17.408v-66.938c41.442-2.659 80.054-20.341 109.395-50.273 31.106-31.732 48.235-73.617 48.235-117.942zm-497.079 235.152v-73.621c0-1.371 1.115-2.487 2.487-2.487h95.742v78.595h-95.742c-1.371 0-2.487-1.115-2.487-2.487zm259.935-192.885c-6.533-10.573-10.48-22.445-11.617-34.807h25.868c4.121 0 7.461-3.34 7.461-7.461 0-4.12-3.34-7.461-7.461-7.461h-25.865c3.778-40.924 38.289-73.081 80.183-73.081 16.936 0 33.359 5.332 46.992 15.133-40.782 33.175-62.742 51.28-65.295 53.833-3.832 3.832-5.943 8.928-5.943 14.348-.129 9.766 8.517 20.388 20.291 20.29 5.42 0 10.515-2.11 14.347-5.942h.001c.409-.409 1.23-1.331 2.437-2.737l56.425 26.899c-12.224 20.561-33.357 35.171-58.311 38.524v-20.129c0-9.599-7.809-17.408-17.408-17.408h-62.105zm144.218-14.469-52.927-25.232c9.063-10.956 22.985-27.977 41.667-50.943 10.455 13.9 16.154 30.829 16.154 48.376 0 9.776-1.734 19.134-4.894 27.799zm-75.81-21.228c-2.426 3.32-13.015.597-7.595-7.591.764-.75 6.328-5.641 43.882-36.288-30.628 37.53-35.53 43.11-36.287 43.879zm.162-130.381c68.269 0 123.81 55.541 123.81 123.811 0 63.932-49.964 117.703-112.865 123.316v-28.501c21.968-2.504 42.276-12.475 57.789-28.567 17.236-17.879 26.729-41.407 26.729-66.249 0-22.053-7.586-43.291-21.447-60.291 2.896-4.275 2.399-9.841-1.334-13.574-3.78-3.781-9.441-4.237-13.737-1.215-16.766-13.171-37.508-20.383-58.946-20.383-52.639 0-95.463 42.825-95.463 95.463 0 14.791 3.393 29.192 9.862 42.268h-14.118c-5.666 0-10.693 2.734-13.874 6.938-6.713-15.44-10.217-32.133-10.217-49.205.001-68.269 55.542-123.811 123.811-123.811zm-3.977 358.963c0 1.371-1.115 2.487-2.487 2.487h-95.742v-177.964c0-1.371 1.115-2.487 2.487-2.487h93.255c1.372 0 2.487 1.116 2.487 2.487z"/><path d="m28.617 291.506h35.954v35.954c0 4.076 2.624 7.599 6.528 8.766 2.891.786 7.275.311 10.268-3.741l51.235-77.965 4.209 4.209c4.675 4.937 15.006 2.736 16.086-5.749l4.348-43.811c.45-4.714-3.577-10.892-10.338-10.339l-43.81 4.349c-6.784.486-11.627 9.874-5.75 16.086l4.209 4.209-77.963 51.234c-3.406 2.238-4.91 6.365-3.742 10.269s4.691 6.529 8.766 6.529zm119.766-77.827c-.003 0-.007 0-.011.001zm-30.974 17.234c1.875-1.232 3.096-3.243 3.324-5.475s-.56-4.449-2.146-6.035l-2.516-2.516 25.668-2.548-2.548 25.668-2.515-2.516c-1.586-1.586-3.797-2.378-6.036-2.146-2.232.228-4.243 1.449-5.475 3.324l-45.672 69.5v-24.123c0-4.12-3.34-7.461-7.461-7.461h-24.122z"/></g></svg>